<svg xmlns="http://www.w3.org/2000/svg" xmlns:xlink="http://www.w3.org/1999/xlink" width="256" height="256" viewBox="0 0 67.73 67.73">
    <defs>
        <linearGradient id="f" x1="296" x2="296" y1="-212" y2="236" gradientUnits="userSpaceOnUse">
            <stop offset="0" stop-color="#FFFEFE"/>
            <stop offset=".125" stop-color="#FFFEFE" stop-opacity=".098"/>
            <stop offset=".925" stop-opacity=".098"/>
            <stop offset="1" stop-opacity=".498"/>
        </linearGradient>
        <linearGradient id="c">
            <stop stop-color="#FFFEFE" offset="0"/>
            <stop stop-opacity=".204" stop-color="#FFFEFE" offset="1"/>
        </linearGradient>
        <linearGradient id="b">
            <stop stop-color="#F48B00" offset="0"/>
            <stop stop-color="#F48B00" offset="1"/>
        </linearGradient>
        <linearGradient id="a">
            <stop offset="0"/>
            <stop stop-opacity=".433" offset=".159"/>
            <stop stop-opacity=".1" offset=".194"/>
            <stop stop-opacity="0" offset="1"/>
        </linearGradient>
        <linearGradient id="d">
            <stop stop-color="#282828" offset="0"/>
            <stop stop-color="#181818" offset="1"/>
        </linearGradient>
        <linearGradient xlink:href="#e" id="k" gradientUnits="userSpaceOnUse" gradientTransform="matrix(1.1371 0 0 1.00604 -356.8 -52.383)" x1="321" y1="106" x2="367" y2="63"/>
        <linearGradient id="e">
            <stop stop-color="#de78e5" offset="0"/>
            <stop stop-color="#562ab9" offset=".5"/>
            <stop stop-color="#2d008c" offset="1"/>
        </linearGradient>
        <clipPath id="i">
            <path fill="#9F4AC8" d="M361.938-212C507.235-212 528-191.287 528-46.125v116.25C528 215.286 507.235 236 361.937 236H214.063C68.766 236 48 215.286 48 70.125v-116.25C48-191.287 68.765-212 214.063-212z"/>
        </clipPath>
        <filter color-interpolation-filters="sRGB" height="1.025" width="1.023" y="-.01" x="-.01" id="h">
            <feGaussianBlur stdDeviation="1.16"/>
        </filter>
        <filter color-interpolation-filters="sRGB" height="1.05" width="1.046" y="-.03" x="-.02" id="g">
            <feGaussianBlur stdDeviation="2.32"/>
        </filter>
        <linearGradient xlink:href="#f" id="j" gradientUnits="userSpaceOnUse" x1="296" y1="-212" x2="296" y2="236"/>
        <linearGradient xlink:href="#d" id="l" gradientUnits="userSpaceOnUse" gradientTransform="matrix(1.1371 0 0 1.00604 -356.8 -47.354)" x1="321" y1="70" x2="367" y2="105"/>
    </defs>
    <path transform="translate(-7.336 -7.091) scale(.2697)" d="M188.969 46C261.617 46 272 56.357 272 128.938v58.125c0 72.58-10.383 82.937-83.031 82.937H115.03C42.383 270 32 259.643 32 187.062v-58.125C32 56.358 42.383 46 115.031 46z" opacity=".2" filter="url(#g)"/>
    <path transform="translate(-7.336 -7.091) scale(.2697)" d="M188.969 44C261.617 44 272 54.357 272 126.938v58.124C272 257.644 261.617 268 188.969 268H115.03C42.383 268 32 257.643 32 185.062v-58.125C32 54.358 42.383 44 115.031 44z" opacity=".1" filter="url(#h)"/>
    <path d="M23.69 4.776c-9.798 0-15.395.697-18.546 3.843-3.15 3.147-3.85 8.738-3.85 18.526v15.677c0 9.788.7 15.379 3.85 18.525 3.15 3.147 8.748 3.844 18.545 3.844H43.63c9.798 0 15.395-.697 18.545-3.844 3.15-3.146 3.85-8.737 3.85-18.525V27.145c0-9.788-.7-15.38-3.85-18.526-3.15-3.146-8.747-3.843-18.545-3.843z" fill="#e1e1e1"/>
    <path d="M1.295 42.282v.54c0 9.788.7 15.379 3.85 18.525 3.15 3.147 8.747 3.844 18.544 3.844H43.63c9.798 0 15.395-.697 18.545-3.844 3.15-3.146 3.85-8.737 3.85-18.525v-.54c0 9.788-.7 15.38-3.85 18.526-3.15 3.146-8.747 3.843-18.545 3.843H23.69c-9.798 0-15.395-.697-18.546-3.843-3.15-3.147-3.85-8.738-3.85-18.526z" opacity=".2" fill="#111110"/>
    <path transform="translate(-5.178 33.365) scale(.13485)" d="M361.938-212C507.235-212 528-191.287 528-46.125v116.25C528 215.286 507.235 236 361.937 236H214.063C68.766 236 48 215.286 48 70.125v-116.25C48-191.287 68.765-212 214.063-212z" clip-path="url(#i)" opacity=".4" fill="none" stroke="url(#j)" stroke-width="8" stroke-linecap="round" stroke-linejoin="round"/>
    <path d="M1.295 32.825v9.997c0 9.788.7 15.379 3.85 18.525 3.15 3.147 8.747 3.844 18.544 3.844H43.63c9.798 0 15.395-.697 18.545-3.844 3.15-3.146 3.85-8.737 3.85-18.525v-9.997z" opacity=".05" fill="#fffefe"/>
    <path overflow="visible" font-weight="400" style="line-height:normal;font-variant-ligatures:normal;font-variant-position:normal;font-variant-caps:normal;font-variant-numeric:normal;font-variant-alternates:normal;font-feature-settings:normal;text-indent:0;text-align:start;text-decoration-line:none;text-decoration-style:solid;text-decoration-color:#000;text-transform:none;text-orientation:mixed;white-space:normal;shape-padding:0;isolation:auto;mix-blend-mode:normal;solid-color:#000;solid-opacity:1;marker:none" d="M18.229 17.032c-3.298 0-5.745-.095-7.57 1.127-.925.618-1.539 1.55-1.891 2.733-.352 1.177-.487 2.63-.487 4.515v25.096c0 1.964.06 3.461.304 4.672.245 1.214.708 2.199 1.577 2.883.868.684 1.993.966 3.292 1.098 1.297.133 2.838.13 4.775.13H50.64c1.9 0 3.423.002 4.713-.13 1.291-.132 2.417-.413 3.291-1.092.877-.68 1.357-1.663 1.615-2.879.258-1.213.327-2.716.327-4.682V31.851c0-.26-.014-.428-.016-.608v-.012l.016-1.887c.014-1.82.021-3.27-.13-4.482-.154-1.21-.476-2.243-1.248-3.045-.775-.805-1.904-1.247-3.286-1.479-1.378-.231-3.075-.287-5.284-.287H32.556l-3.412-3.019z" color="#000" font-family="sans-serif" opacity=".1"/>
    <path overflow="visible" font-weight="400" style="line-height:normal;font-variant-ligatures:normal;font-variant-position:normal;font-variant-caps:normal;font-variant-numeric:normal;font-variant-alternates:normal;font-feature-settings:normal;text-indent:0;text-align:start;text-decoration-line:none;text-decoration-style:solid;text-decoration-color:#000;text-transform:none;text-orientation:mixed;white-space:normal;shape-padding:0;isolation:auto;mix-blend-mode:normal;solid-color:#000;solid-opacity:1;marker:none" d="M18.228 10.997c-3.298 0-5.743-.096-7.569 1.126-.924.619-1.538 1.551-1.892 2.733-.352 1.177-.486 2.63-.486 4.516V28.1h52.308v-2.283c0-.26-.014-.429-.017-.61v-.012l.017-1.886c.015-1.82.021-3.27-.132-4.481-.152-1.211-.472-2.245-1.245-3.046-.776-.805-1.904-1.248-3.287-1.48-1.379-.23-3.076-.287-5.284-.287H32.557l-3.41-3.018z" color="#000" font-family="sans-serif" fill="url(#k)"/>
    <path overflow="visible" style="marker:none" d="M33.227 23.069l-3.415 3.018H18.23c-7.747 0-8.811 0-8.811 7.776v1.007c0-7.777 1.063-7.777 8.81-7.777h11.584l3.415-3.018H50.64c7.601 0 8.81 0 8.81 7.776v-1.006c0-7.776-1.209-7.776-8.81-7.776z" color="#000" opacity=".3" fill="#fff"/>
    <path overflow="visible" font-weight="400" d="M50.648 18.039c3.299 0 5.743-.095 7.569 1.126.924.619 1.539 1.551 1.892 2.733.352 1.178.486 2.63.486 4.515v23.085c0 1.964-.06 3.462-.305 4.672-.244 1.213-.707 2.198-1.576 2.883-.867.683-1.993.966-3.291 1.099-1.298.132-2.839.129-4.775.129H18.236c-1.9 0-3.423.002-4.713-.13-1.291-.132-2.417-.413-3.29-1.092-.877-.68-1.357-1.663-1.616-2.879-.258-1.213-.326-2.715-.326-4.682v-16.64c0-.259.014-.428.016-.609v-.011L8.29 30.35c-.015-1.82-.021-3.27.13-4.481.153-1.212.475-2.245 1.247-3.046.775-.805 1.904-1.248 3.287-1.48 1.379-.23 3.077-.286 5.284-.286h11.259l3.411-3.019z" style="line-height:normal;font-variant-ligatures:normal;font-variant-position:normal;font-variant-caps:normal;font-variant-numeric:normal;font-variant-alternates:normal;font-feature-settings:normal;text-indent:0;text-align:start;text-decoration-line:none;text-decoration-style:solid;text-decoration-color:#000;text-transform:none;text-orientation:mixed;white-space:normal;shape-padding:0;isolation:auto;mix-blend-mode:normal;solid-color:#000;solid-opacity:1;marker:none" color="#000" font-family="sans-serif" fill="url(#l)"/>
    <path overflow="visible" d="M60.515 45.202L46.87 57.274h5.33c7.542 0 8.315-.684 8.315-7.342z" style="marker:none" color="#000" opacity=".05" fill="#fff"/>
    <path overflow="visible" font-weight="400" style="line-height:normal;font-variant-ligatures:normal;font-variant-position:normal;font-variant-caps:normal;font-variant-numeric:normal;font-variant-alternates:normal;font-feature-settings:normal;text-indent:0;text-align:start;text-decoration-line:none;text-decoration-style:solid;text-decoration-color:#000;text-transform:none;text-orientation:mixed;white-space:normal;shape-padding:0;isolation:auto;mix-blend-mode:normal;solid-color:#000;solid-opacity:1;marker:none" d="M8.281 48.491v1.006c0 1.964.06 3.461.304 4.672.245 1.214.708 2.199 1.577 2.883.868.684 1.993.965 3.292 1.098 1.297.133 2.838.13 4.775.13H50.64c1.9 0 3.423.002 4.713-.13 1.291-.133 2.417-.413 3.291-1.092.877-.68 1.357-1.663 1.615-2.879.258-1.213.327-2.716.327-4.682v-1.006c0 1.967-.07 3.47-.327 4.682-.258 1.216-.738 2.199-1.615 2.879-.875.679-2 .96-3.291 1.092-1.29.132-2.813.13-4.713.13H18.23c-1.937 0-3.478.003-4.775-.13-1.299-.133-2.424-.415-3.292-1.098-.869-.684-1.332-1.67-1.577-2.883-.244-1.21-.304-2.708-.304-4.672z" color="#000" font-family="sans-serif" opacity=".2"/>
    <path overflow="visible" font-weight="400" style="line-height:normal;font-variant-ligatures:normal;font-variant-position:normal;font-variant-caps:normal;font-variant-numeric:normal;font-variant-alternates:normal;font-feature-settings:normal;text-indent:0;text-align:start;text-decoration-line:none;text-decoration-style:solid;text-decoration-color:#000;text-transform:none;text-orientation:mixed;white-space:normal;shape-padding:0;isolation:auto;mix-blend-mode:normal;solid-color:#000;solid-opacity:1;marker:none" d="M32.907 18.039l-3.412 3.018h-11.26c-2.196-.197-3.905.056-5.283.286-1.383.232-2.512.674-3.288 1.48-.771.802-1.093 1.834-1.245 3.046-.084.658-.116 1.408-.129 2.23h.044c.02-.426.039-.855.085-1.224.152-1.212.473-2.244 1.245-3.046.775-.805 1.905-1.247 3.287-1.479 1.378-.231 3.087-.484 5.284-.287h11.26l3.41-3.018h17.741c3.3 0 5.745-.096 7.57 1.126.925.618 1.54 1.55 1.891 2.733.352 1.177.487 2.63.487 4.515v-1.006c0-1.886-.135-3.338-.486-4.515-.353-1.182-.968-2.115-1.892-2.734-1.826-1.221-4.27-1.125-7.57-1.125z" color="#000" font-family="sans-serif" opacity=".2" fill="#fff"/>
    <path overflow="visible" font-weight="400" d="M32.907 17.032l-3.412 3.019h-11.26c-2.196-.197-3.905.056-5.283.286-1.383.232-2.512.674-3.288 1.48-.771.802-1.093 1.834-1.245 3.045-.084.66-.116 1.409-.129 2.23h.044c.02-.425.039-.854.085-1.223.152-1.212.473-2.244 1.245-3.046.775-.805 1.905-1.247 3.287-1.479 1.378-.231 3.087-.484 5.284-.287h11.26l3.41-3.018h17.741c3.3 0 5.745-.096 7.57 1.126.925.618 1.54 1.55 1.891 2.733.352 1.177.487 2.63.487 4.515v-1.006c0-1.886-.135-3.338-.486-4.515-.353-1.182-.968-2.115-1.892-2.734-1.826-1.221-4.27-1.126-7.57-1.126z" style="line-height:normal;font-variant-ligatures:normal;font-variant-position:normal;font-variant-caps:normal;font-variant-numeric:normal;font-variant-alternates:normal;font-feature-settings:normal;text-indent:0;text-align:start;text-decoration-line:none;text-decoration-style:solid;text-decoration-color:#000;text-transform:none;text-orientation:mixed;white-space:normal;shape-padding:0;isolation:auto;mix-blend-mode:normal;solid-color:#000;solid-opacity:1;marker:none" color="#000" font-family="sans-serif" opacity=".1" fill="#222"/>
    <path overflow="visible" font-weight="400" style="line-height:normal;font-variant-ligatures:normal;font-variant-position:normal;font-variant-caps:normal;font-variant-numeric:normal;font-variant-alternates:normal;font-feature-settings:normal;text-indent:0;text-align:start;text-decoration-line:none;text-decoration-style:solid;text-decoration-color:#000;text-transform:none;text-orientation:mixed;white-space:normal;shape-padding:0;isolation:auto;mix-blend-mode:normal;solid-color:#000;solid-opacity:1;marker:none" d="M18.229 10.996c-3.298 0-5.745-.095-7.57 1.126-.925.619-1.539 1.551-1.891 2.732-.352 1.177-.487 2.631-.487 4.517v1.006c0-1.887.135-3.34.487-4.517.352-1.18.966-2.113 1.891-2.732 1.826-1.221 4.272-1.127 7.57-1.127h10.917l3.412 3.018H50.64c2.209 0 3.905.057 5.284.288 1.382.232 2.511.674 3.287 1.479.772.802 1.093 1.835 1.245 3.046.077.606.114 1.27.13 2.012 0-1.134-.022-2.166-.13-3.018-.152-1.211-.473-2.243-1.245-3.046-.775-.805-1.905-1.248-3.287-1.479-1.378-.231-3.075-.287-5.284-.287H32.558l-3.41-3.018zm42.35 14.454l-.011.75v.013c0 .18.015.349.015.608v-1.006c0-.156 0-.252-.01-.365z" color="#000" font-family="sans-serif" opacity=".2" fill="#fff"/>
</svg>
